<svg xmlns="http://www.w3.org/2000/svg" version="1.1" xmlns:xlink="http://www.w3.org/1999/xlink" xmlns:svgjs="http://svgjs.dev/svgjs" width="1500" height="234" viewBox="0 0 1500 234"><g transform="matrix(1,0,0,1,-0.9090909090909918,-0.20280935725358518)"><svg viewBox="0 0 396 62" data-background-color="#ffffff" preserveAspectRatio="xMidYMid meet" height="234" width="1500" xmlns="http://www.w3.org/2000/svg" xmlns:xlink="http://www.w3.org/1999/xlink"><g id="tight-bounds" transform="matrix(1,0,0,1,0.2400000000000091,0.053735812605651745)"><svg viewBox="0 0 395.52 61.8925283747887" height="61.8925283747887" width="395.52"><g><svg viewBox="0 0 395.52 61.8925283747887" height="61.8925283747887" width="395.52"><g><svg viewBox="0 0 395.52 61.8925283747887" height="61.8925283747887" width="395.52"><g id="textblocktransform"><svg viewBox="0 0 395.52 61.8925283747887" height="61.8925283747887" width="395.52" id="textblock"><g><svg viewBox="0 0 395.52 61.8925283747887" height="61.8925283747887" width="395.52"><g transform="matrix(1,0,0,1,0,0)"><svg width="395.52" viewBox="4.65 -32.05 207.03 32.4" height="61.8925283747887" data-palette-color="#7e91c6"><path d="M8.75-32.05L8.5-10 8.7 0 4.65 0 4.9-9.65 4.65-32.05 8.75-32.05ZM38.7-25L38.55-7.45 38.6 0 34.6 0 21.5-19 21.25-19 21.2-8.3 21.3 0 17.9 0 18.05-7.35 17.95-24.9 21.9-24.9 35-5.9 35.35-5.9 35.25-24.75 38.7-25ZM66.34-24.9L56.85 0 52.4 0 43.7-24.9 47.55-24.9 48.15-22.15 54.6-3.7 54.85-3.7 62-22 62.6-24.9 66.34-24.9ZM80.39-3L87.04-3.2 87.34-2.9 86.99 0 71.84 0 71.99-7.5 71.84-24.9 87.09-24.9 87.34-24.6 87.04-21.7 80.74-21.9 75.54-21.85 75.49-14.3 80.44-14.25 84.79-14.4 85.04-14.05 84.74-11.1 80.14-11.25 75.49-11.2 75.44-7.8 75.49-3.05 80.39-3ZM114.39-25L114.24-7.45 114.29 0 110.29 0 97.19-19 96.94-19 96.89-8.3 96.99 0 93.59 0 93.74-7.35 93.64-24.9 97.59-24.9 110.69-5.9 111.04-5.9 110.94-24.75 114.39-25ZM138.24-24.9L138.44-24.6 138.19-21.45 133.54-21.8 131.04-21.8 130.89-7.8 131.04 0 127.29 0 127.44-7.5 127.34-21.8 124.84-21.8 120.09-21.45 119.79-21.8 120.09-24.9 138.24-24.9ZM152.34-25.2Q157.78-25.2 160.71-22 163.63-18.8 163.63-12.95L163.63-12.95Q163.63-6.6 160.51-3.13 157.38 0.35 151.59 0.35L151.59 0.35Q146.19 0.35 143.23-2.93 140.28-6.2 140.28-12.25L140.28-12.25Q140.28-18.45 143.44-21.83 146.59-25.2 152.34-25.2L152.34-25.2ZM151.98-22.05Q148.03-22.05 146.11-19.8 144.19-17.55 144.19-12.7L144.19-12.7Q144.19-7.5 146.09-5.15 147.98-2.8 151.88-2.8L151.88-2.8Q155.88-2.8 157.84-5.1 159.78-7.4 159.78-12.3L159.78-12.3Q159.78-17.35 157.86-19.7 155.94-22.05 151.98-22.05L151.98-22.05ZM181.83-10.05Q184.88-5.4 188.58-0.9L188.58-0.9 188.53-0.4Q186.43 0.25 185.08 0.35L185.08 0.35 184.43-0.05Q180.63-5.8 178.68-9.1L178.68-9.1 173.98-9.05 173.98-7.8 174.08 0 170.38 0 170.53-7.5 170.38-24.9 178.88-24.95Q182.83-24.95 184.96-23.1 187.08-21.25 187.08-17.75L187.08-17.75Q187.08-15.2 185.71-13.2 184.33-11.2 181.83-10.05L181.83-10.05ZM174.08-21.9L174.03-12.15 178.73-12Q183.18-13.25 183.18-17.45L183.18-17.45Q183.18-19.65 181.88-20.75 180.58-21.85 177.93-21.95L177.93-21.95 174.08-21.9ZM202.43-8.7L202.38-7.15 202.53 0 198.78 0 198.98-7.15 198.93-8.7 190.48-24.9 194.58-24.9 195.08-23.45 200.68-12.75 200.93-12.75 207.03-23.3 207.68-24.9 211.68-24.9 202.43-8.7Z" opacity="1" transform="matrix(1,0,0,1,0,0)" fill="#7e91c6" class="wordmark-text-0" data-fill-palette-color="primary" id="text-0"></path></svg></g></svg></g></svg></g></svg></g></svg></g><defs></defs></svg><rect width="395.52" height="61.8925283747887" fill="none" stroke="none" visibility="hidden"></rect></g></svg></g></svg>